<?xml version="1.0" encoding="UTF-8"?>
<!DOCTYPE svg PUBLIC "-//W3C//DTD SVG 1.1//EN" "http://www.w3.org/Graphics/SVG/1.1/DTD/svg11.dtd">
<!-- Creator: CorelDRAW X7 -->
<svg xmlns="http://www.w3.org/2000/svg" xml:space="preserve" width="500px" height="500px" version="1.1" style="shape-rendering:geometricPrecision; text-rendering:geometricPrecision; image-rendering:optimizeQuality; fill-rule:evenodd; clip-rule:evenodd"
viewBox="0 0 500 500"
 xmlns:xlink="http://www.w3.org/1999/xlink">
 <defs>
  <style type="text/css">
   <![CDATA[
    .fil3 {fill:none}
    .fil0 {fill:#E23C50}
    .fil2 {fill:#454443;fill-rule:nonzero}
    .fil1 {fill:#E23C50;fill-rule:nonzero}
   ]]>
  </style>
 </defs>
 <g id="Layer_x0020_1">
  <metadata id="CorelCorpID_0Corel-Layer"/>
  <g id="_3038766195296">
   <path class="fil0" d="M423 102l-34 0c0,0 -1,0 -1,1 -1,-13 -5,-24 -13,-32l18 -18c1,-1 1,-3 0,-4 -1,-2 -3,-2 -5,0l-17 17c-9,-7 -20,-12 -32,-13 0,0 0,-1 0,-1l0 -34c0,-2 -1,-3 -3,-3 -2,0 -3,1 -3,3l0 34c0,0 0,1 0,1 -12,1 -22,6 -31,13l-19 -19c-1,-1 -3,-1 -4,0 -1,2 -1,4 0,5l18 18c-7,9 -12,20 -13,32 0,0 -1,0 -2,0l-33 0c-2,0 -3,1 -3,3 0,2 1,3 3,3l33 0c1,0 2,0 2,-1 1,13 6,24 13,33l-17 17c-1,1 -1,3 0,4 1,1 2,1 2,1 1,0 2,0 2,-1l18 -17c8,7 19,12 31,13 0,0 0,1 0,2l0 33c0,2 1,3 3,3 2,0 3,-1 3,-3l0 -33c0,-1 0,-2 0,-2 12,-1 23,-6 32,-13l17 17c1,1 2,1 2,1 1,0 2,0 3,-1 1,-1 1,-3 0,-4l-18 -18c8,-8 12,-19 13,-31 0,0 1,0 1,0l34 0c2,0 3,-1 3,-3 0,-1 -1,-3 -3,-3l0 0zm-87 49c-12,0 -23,-5 -31,-13 -1,0 -1,0 -1,-1 0,0 -1,0 -1,0 -8,-8 -13,-20 -13,-32 0,-25 21,-46 46,-46 25,0 46,21 46,46 0,25 -21,46 -46,46l0 0z"/>
   <path class="fil0" d="M306 87c1,1 1,1 2,1 1,0 2,0 2,-1 0,0 1,0 1,-1 0,0 0,-1 1,-1 0,-2 0,-4 -2,-5 -1,0 -3,0 -4,2 0,0 0,0 0,1 0,0 -1,0 -1,0 -1,2 0,3 1,4z"/>
   <path class="fil0" d="M315 129c-7,-7 -11,-15 -11,-24 0,-2 1,-5 1,-8 1,-2 0,-4 -2,-4 -2,0 -3,1 -4,2 -1,4 -1,7 -1,10 0,11 5,21 13,28 0,1 1,1 2,1 0,0 1,0 2,-1 1,-1 1,-3 0,-4l0 0z"/>
  </g>
  <path class="fil1" d="M226 428l-80 0c-8,0 -15,-7 -15,-15 0,-8 7,-15 15,-15l80 0c8,0 15,7 15,15 0,8 -7,15 -15,15zm-80 -23l0 0c-5,0 -8,4 -8,8 0,4 3,8 8,8l80 0c4,0 8,-4 8,-8 0,-4 -4,-8 -8,-8l-80 0z"/>
  <path class="fil1" d="M186 485c-11,0 -21,-8 -24,-18 -14,-2 -25,-15 -25,-29l0 -4 98 0 0 4c0,14 -11,27 -26,29 -2,10 -12,18 -23,18l0 0zm-42 -44l0 0c1,10 10,19 21,19l3 0 1 3c1,9 8,15 17,15 9,0 16,-6 17,-15l1 -3 2 0c11,0 20,-9 22,-19l-84 0 0 0z"/>
  <polygon class="fil1" points="205,467 168,467 168,460 205,460 "/>
  <path class="fil2" d="M239 392l-107 0 0 -39c-10,-17 -22,-34 -34,-50 -16,-20 -24,-44 -24,-69 0,-62 50,-112 112,-112 62,0 112,50 112,112 0,25 -8,49 -24,69 -11,14 -24,33 -35,51l0 38 0 0zm-100 -7l0 0 93 0 0 -33 1 0c11,-19 24,-39 36,-53 14,-19 22,-41 22,-65 0,-58 -47,-105 -105,-105 -58,0 -105,47 -105,105 0,24 7,46 22,65 13,16 25,34 36,52l0 0 0 34 0 0z"/>
  <path class="fil0" d="M112 201c1,0 2,1 3,1 1,1 2,3 2,4 0,1 0,1 0,1 0,1 0,2 0,4 -1,2 -4,4 -6,4 -3,-1 -5,-4 -4,-6 0,-1 0,-1 0,-2 0,0 0,-1 0,-1 0,-3 2,-5 5,-5l0 0z"/>
  <path class="fil0" d="M167 158c-15,1 -29,7 -38,19 -3,3 -6,7 -8,11 -1,3 -4,4 -6,3 -3,-1 -4,-4 -3,-7 3,-5 5,-9 9,-14 11,-13 27,-21 46,-22 1,0 2,1 3,1 1,1 2,2 2,4 0,3 -2,5 -5,5l0 0z"/>
  <rect class="fil3" width="500" height="500"/>
 </g>
</svg>
